<?xml version="1.0" standalone="no"?>
<!DOCTYPE svg PUBLIC "-//W3C//DTD SVG 20010904//EN"
 "http://www.w3.org/TR/2001/REC-SVG-20010904/DTD/svg10.dtd">
<svg version="1.0" xmlns="http://www.w3.org/2000/svg"
 width="449.000000pt" height="449.000000pt" viewBox="0 0 449.000000 449.000000"
 preserveAspectRatio="xMidYMid meet">
<metadata>
Created by potrace 1.11, written by Peter Selinger 2001-2013
</metadata>
<g transform="translate(0.000000,449.000000) scale(0.100000,-0.100000)"
fill="#000000" stroke="none">
<path d="M1170 4179 c-228 -19 -469 -112 -656 -253 -78 -58 -219 -205 -271
-281 -125 -184 -196 -399 -222 -671 -24 -241 40 -555 160 -791 106 -207 335
-515 553 -741 345 -357 957 -836 1429 -1117 l98 -58 87 53 c310 189 704 470
967 690 299 249 610 562 764 767 154 205 297 462 350 626 51 159 61 238 61
473 0 192 -3 225 -24 317 -29 120 -58 202 -111 307 -173 344 -431 549 -815
646 -142 35 -399 45 -535 19 -242 -45 -437 -150 -637 -343 l-108 -105 -109
106 c-116 113 -234 197 -357 253 -188 85 -408 122 -624 103z m547 -201 c87
-96 158 -227 194 -363 17 -61 22 -110 22 -210 1 -150 -8 -201 -70 -385 -42
-124 -46 -145 -50 -255 -3 -73 0 -126 6 -135 9 -12 46 21 203 177 106 106 189
196 185 200 -5 4 -54 8 -111 8 l-102 0 17 56 c9 30 23 84 30 118 l12 64 88 -7
c122 -9 228 -38 336 -91 50 -25 95 -45 100 -45 15 0 138 132 155 165 11 21 14
56 13 120 -5 191 33 304 136 408 125 125 304 166 471 108 65 -23 130 -60 123
-71 -3 -5 -63 -39 -133 -76 -70 -37 -143 -77 -163 -90 l-36 -22 -7 -103 c-6
-79 -4 -105 6 -114 7 -6 52 -26 100 -45 l87 -32 156 86 c86 47 161 86 167 86
18 0 3 -158 -21 -220 -42 -111 -148 -214 -269 -261 -48 -19 -78 -23 -187 -24
-155 -2 -161 -5 -263 -107 l-73 -74 44 -86 c60 -117 89 -228 95 -361 6 -139
-9 -229 -64 -396 -52 -154 -70 -266 -60 -365 l8 -69 194 194 c106 106 190 197
185 202 -4 4 -52 9 -105 9 -84 0 -96 2 -92 17 29 101 37 133 32 138 -3 4 -1
12 5 20 6 7 9 22 6 32 -7 27 17 31 121 21 120 -11 202 -34 307 -85 83 -40 225
-142 234 -167 2 -5 -32 -46 -75 -89 -77 -78 -78 -78 -99 -60 -20 19 -22 17
-294 -249 l-274 -268 17 -27 18 -27 -78 -79 -78 -79 -29 28 c-68 64 -197 284
-197 336 0 9 -4 16 -9 16 -5 0 -7 9 -4 20 3 12 0 20 -6 20 -7 0 -9 5 -6 10 4
6 4 19 0 28 -17 40 -20 223 -5 305 6 32 8 62 5 68 -4 5 -1 9 6 9 6 0 9 8 6 20
-3 10 -2 20 2 22 11 5 83 226 77 237 -3 5 -1 11 6 13 14 5 19 251 5 264 -9 10
-388 -366 -381 -378 3 -4 50 -8 105 -8 76 0 100 -3 97 -12 -2 -7 -14 -59 -28
-115 l-24 -103 -79 0 c-112 0 -239 32 -351 90 l-95 48 -80 -82 c-44 -45 -82
-93 -86 -107 -3 -13 -7 -88 -8 -165 -2 -140 -2 -140 -39 -215 -47 -95 -130
-177 -225 -222 -65 -31 -74 -32 -189 -32 -119 0 -121 0 -198 38 -42 21 -76 43
-74 48 2 5 77 49 168 98 l165 89 0 112 0 112 -84 34 c-47 19 -91 34 -99 34 -8
0 -84 -38 -169 -85 -85 -47 -156 -85 -157 -85 -10 0 -13 62 -5 119 20 147 119
280 258 349 73 36 77 37 205 40 72 1 142 5 155 8 14 3 64 44 113 91 l87 86
-33 61 c-37 67 -86 196 -86 227 0 10 -4 19 -9 19 -5 0 -7 9 -4 20 3 11 2 28
-2 37 -3 10 -6 65 -6 123 0 58 3 113 6 123 4 9 5 26 2 37 -3 11 -1 23 5 26 5
3 8 15 5 25 -3 10 -2 19 2 21 11 5 94 265 87 276 -3 6 -2 13 4 17 5 3 10 20
10 38 3 166 1 207 -8 207 -4 0 -92 -85 -196 -189 -146 -146 -184 -190 -171
-195 9 -3 57 -6 107 -6 82 0 90 -2 83 -17 -14 -35 -45 -167 -45 -190 0 -22 -3
-23 -69 -23 -194 0 -410 86 -566 225 l-39 36 81 81 c78 78 83 81 101 65 10 -9
23 -17 28 -17 5 0 130 121 277 268 l268 268 -20 25 -20 24 77 78 c42 42 79 77
83 77 4 0 24 -19 46 -42z"/>
<path d="M1346 3481 c-142 -142 -256 -263 -253 -268 3 -5 29 -20 57 -33 l51
-24 229 229 c127 127 230 236 230 243 0 12 -47 112 -53 112 -1 0 -119 -116
-261 -259z"/>
<path d="M2077 2742 l-228 -228 17 -43 c9 -23 20 -41 24 -39 12 5 513 499 509
502 -12 10 -70 36 -81 36 -7 0 -116 -103 -241 -228z"/>
<path d="M2410 2415 c-140 -140 -252 -256 -250 -258 12 -11 70 -37 82 -37 7 0
116 103 242 229 l228 228 -20 47 c-12 25 -22 46 -24 46 -2 0 -118 -115 -258
-255z"/>
<path d="M3123 1698 l-232 -233 31 -59 30 -59 259 259 c142 142 259 262 259
266 0 8 -93 58 -107 58 -5 0 -112 -105 -240 -232z"/>
</g>
</svg>
