<?xml version="1.0" standalone="no"?>
<!DOCTYPE svg PUBLIC "-//W3C//DTD SVG 20010904//EN"
 "http://www.w3.org/TR/2001/REC-SVG-20010904/DTD/svg10.dtd">
<svg version="1.0" xmlns="http://www.w3.org/2000/svg"
 width="502.000000pt" height="502.000000pt" viewBox="0 0 502.000000 502.000000"
 preserveAspectRatio="xMidYMid meet">
<metadata>
Created by potrace 1.11, written by Peter Selinger 2001-2013
</metadata>
<g transform="translate(0.000000,502.000000) scale(0.100000,-0.100000)"
fill="#000000" stroke="none">
<path d="M1355 4185 c-327 -52 -630 -231 -820 -484 -119 -157 -187 -313 -231
-529 -22 -106 -27 -154 -27 -287 -1 -404 123 -711 457 -1139 245 -314 579
-627 1036 -970 271 -204 715 -496 753 -496 24 0 386 232 602 386 356 255 619
477 900 758 270 271 439 495 578 768 121 235 167 426 167 684 0 240 -43 429
-141 626 -171 342 -435 557 -798 649 -465 118 -876 10 -1212 -320 l-98 -96
-103 101 c-189 185 -379 288 -623 339 -110 23 -327 28 -440 10z m485 -454
c144 -55 262 -205 317 -401 15 -57 18 -107 18 -400 0 -300 2 -339 18 -375 40
-88 33 -91 197 78 81 84 149 157 151 162 6 17 -107 55 -186 62 l-76 6 3 76 3
76 68 -2 c85 -2 184 -25 260 -62 l58 -28 125 130 c70 71 133 145 141 165 8 19
14 57 14 86 0 143 44 251 138 338 66 62 141 96 227 105 63 7 144 -4 144 -19 0
-6 -40 -52 -89 -102 -96 -98 -111 -121 -111 -161 0 -41 24 -77 90 -138 57 -54
64 -57 111 -57 50 0 51 0 154 101 67 65 110 99 119 96 18 -7 31 -101 22 -168
-18 -132 -102 -252 -220 -311 -55 -28 -74 -32 -186 -38 -97 -6 -135 -12 -165
-28 -22 -11 -89 -70 -149 -131 l-109 -110 35 -78 c62 -135 70 -197 66 -535 -2
-163 1 -300 5 -304 7 -8 237 213 237 227 0 4 -34 10 -75 14 l-75 7 1 52 c1 28
4 62 8 75 6 23 10 24 75 22 140 -5 297 -64 408 -154 103 -85 158 -205 158
-345 0 -76 -20 -141 -45 -149 -6 -2 -16 23 -23 55 -16 78 -61 166 -87 170 -14
2 -64 -41 -178 -156 -86 -87 -157 -166 -157 -175 0 -25 41 -47 116 -60 77 -15
100 -35 71 -64 -15 -15 -36 -18 -125 -18 -99 0 -112 3 -167 30 -82 41 -180
141 -228 232 -75 143 -95 289 -79 569 11 190 3 303 -28 392 -11 30 -23 59 -27
63 -5 5 -83 -70 -176 -166 l-167 -173 67 -23 c37 -12 107 -27 157 -33 l90 -11
-3 -65 c-1 -36 -8 -70 -14 -76 -30 -29 -283 23 -374 76 l-32 19 -78 -82 c-94
-99 -166 -184 -183 -216 -7 -14 -16 -73 -21 -133 -6 -90 -13 -120 -37 -171
-55 -115 -144 -190 -267 -222 -67 -18 -195 -12 -195 9 0 6 43 57 95 114 87 94
95 105 95 143 0 54 -19 87 -84 146 -98 90 -134 83 -273 -50 -81 -79 -106 -98
-116 -88 -8 8 -12 49 -12 119 0 101 2 111 32 173 40 82 112 150 196 189 52 24
80 29 182 35 85 5 129 12 155 25 19 10 86 72 148 139 l113 120 -30 59 c-62
123 -66 153 -66 524 0 218 -4 341 -10 347 -7 7 -51 -30 -140 -119 -71 -71
-126 -132 -123 -135 3 -3 41 -9 84 -13 l79 -7 -3 -60 c-5 -90 -7 -95 -53 -95
-76 0 -194 31 -284 75 -124 59 -203 133 -252 233 -36 72 -38 81 -37 166 2 140
44 226 66 136 25 -97 30 -110 49 -121 19 -9 35 4 160 128 163 161 170 178 84
200 -27 7 -74 13 -102 13 -58 0 -66 11 -28 36 72 47 232 54 335 15z"/>
<path d="M1652 3367 l-183 -183 28 -25 c16 -14 45 -39 66 -54 l38 -28 175 174
175 175 -48 62 c-26 34 -52 62 -58 62 -5 0 -92 -82 -193 -183z"/>
<path d="M2473 2571 c-90 -93 -163 -173 -163 -178 0 -5 20 -29 45 -53 l45 -44
170 169 c94 93 170 174 170 180 0 13 -82 95 -95 95 -5 0 -83 -76 -172 -169z"/>
<path d="M3245 1780 l-168 -168 37 -55 c20 -30 42 -60 49 -66 10 -8 58 35 198
175 l184 185 -40 36 c-87 76 -70 84 -260 -107z"/>
</g>
</svg>
