<?xml version="1.0" standalone="no"?>
<!DOCTYPE svg PUBLIC "-//W3C//DTD SVG 20010904//EN"
 "http://www.w3.org/TR/2001/REC-SVG-20010904/DTD/svg10.dtd">
<svg version="1.0" xmlns="http://www.w3.org/2000/svg"
 width="449.000000pt" height="449.000000pt" viewBox="0 0 449.000000 449.000000"
 preserveAspectRatio="xMidYMid meet">
<metadata>
Created by potrace 1.11, written by Peter Selinger 2001-2013
</metadata>
<g transform="translate(0.000000,449.000000) scale(0.100000,-0.100000)"
fill="#000000" stroke="none">
<path d="M1135 4183 c-133 -18 -288 -64 -410 -123 -72 -34 -202 -113 -215
-129 -3 -3 -22 -18 -42 -33 -44 -34 -157 -150 -192 -198 -48 -66 -79 -115 -77
-119 2 -2 -1 -7 -6 -10 -9 -6 -75 -139 -93 -186 -10 -28 -30 -91 -35 -112 -3
-10 -9 -36 -14 -58 -19 -77 -24 -107 -36 -230 -1 -16 -4 -32 -5 -35 -2 -5 0
-136 3 -227 1 -24 4 -43 8 -43 3 0 6 -19 8 -42 1 -23 4 -45 6 -48 2 -4 7 -22
10 -41 3 -19 13 -59 22 -89 9 -30 17 -58 19 -62 1 -5 2 -9 4 -10 1 -2 3 -10 5
-18 2 -8 8 -28 15 -45 6 -16 11 -31 11 -33 -3 -9 143 -279 159 -292 3 -3 17
-23 30 -45 13 -22 27 -42 30 -45 3 -3 26 -34 52 -70 40 -58 81 -110 136 -176
9 -11 35 -42 57 -69 61 -74 340 -353 430 -430 44 -37 85 -73 90 -79 6 -6 30
-27 55 -46 25 -19 50 -39 56 -45 24 -22 93 -78 174 -140 110 -86 129 -100 165
-127 17 -12 35 -26 40 -31 74 -57 455 -311 579 -386 39 -22 78 -41 87 -41 14
0 119 60 209 120 8 5 78 52 155 103 189 125 513 359 571 412 6 5 29 24 50 40
21 17 59 48 85 70 25 22 70 60 99 85 163 137 602 578 593 595 -1 2 10 17 25
33 62 65 208 288 284 433 57 108 121 266 113 279 -3 6 -2 10 3 10 6 0 13 15
16 33 3 17 9 43 13 57 9 35 15 619 6 633 -4 7 -8 19 -10 27 -4 32 -26 107 -39
137 -8 17 -14 34 -14 38 0 3 -11 31 -25 61 -14 30 -25 59 -25 64 0 6 -4 10 -8
10 -4 0 -12 13 -18 28 -23 59 -129 204 -209 284 -96 96 -95 96 -183 154 -144
97 -282 149 -527 199 -16 3 -89 8 -161 11 -245 8 -445 -40 -635 -154 -93 -55
-109 -66 -109 -74 0 -4 -6 -8 -12 -8 -7 0 -37 -23 -67 -50 -30 -28 -57 -50
-60 -51 -3 0 -31 -29 -61 -63 l-55 -62 -90 87 c-49 49 -103 98 -120 111 -16
12 -32 25 -35 28 -9 11 -135 87 -187 113 -91 47 -192 81 -298 103 -11 2 -31 7
-45 10 -30 7 -313 13 -355 7z"/>
</g>
</svg>
